<svg width="34" height="31" viewBox="0 0 34 31" fill="none" xmlns="http://www.w3.org/2000/svg">
<path d="M15.8051 0.0193211C6.95507 0.404131 -0.0265905 7.16139 7.61352e-05 15.2839C0.00446046 17.6748 0.624281 20.0305 1.80841 22.1566L0.045076 30.0083C0.0235609 30.1065 0.0291947 30.2081 0.0614557 30.3037C0.0937168 30.3993 0.151564 30.4859 0.229648 30.5554C0.307732 30.6249 0.403531 30.6751 0.508188 30.7013C0.612845 30.7276 0.72298 30.7291 0.828409 30.7056L9.2184 28.8831C11.4405 29.8973 13.88 30.44 16.3584 30.4716C25.4034 30.5994 32.9434 24.0145 33.225 15.7257C33.5284 6.83661 25.5301 -0.407048 15.8051 0.0177816V0.0193211ZM25.8167 23.6728C24.6075 24.7855 23.1725 25.667 21.5937 26.2666C20.015 26.8661 18.3237 27.1721 16.6167 27.1669C14.6084 27.1726 12.6262 26.7468 10.8267 25.9232L9.6584 25.389L4.51341 26.5065L5.59674 21.6872L5.02007 20.6528C4.08524 18.9793 3.60047 17.1224 3.60674 15.2393C3.60674 12.0531 4.96007 9.05619 7.41674 6.80428C9.86539 4.56577 13.1713 3.30966 16.6167 3.30867C20.0934 3.30867 23.3601 4.5493 25.8167 6.80274C27.0271 7.90428 27.9875 9.21757 28.642 10.6659C29.2965 12.1142 29.6318 13.6684 29.6284 15.2378C29.6284 18.3963 28.2534 21.4409 25.8167 23.6743V23.6728Z" fill="white"/>
</svg>
